#!OML:ASF E:\inclinewalkrobotboard\Project 1\Capture day 1\Session 1\subject1.ASF
:FULLY-SPECIFIED
:DEGREES
523
root 7.48668 17.3353 37.3702 13.1414 -7.02245 6.59296
lowerback -1.44363 -1.67961 -4.72726
upperback 4.22426 -2.21396 3.4205
thorax 5.53802 -1.39277 6.10448
lowerneck 5.94325 2.08803 -4.61173
upperneck 16.9515 1.8288 6.30322
head 3.97622 0.870556 2.74124
rclavicle -6.36111e-015 -1.90833e-014
rhumerus -39.6159 -21.3011 -71.5355
rradius 31.7427
rwrist 7.71564
rhand -12.2714 -37.9097
rfingers 7.12502
rthumb 13.7954 -67.4322
lclavicle -6.36111e-015 -1.90833e-014
lhumerus -25.9677 -3.31895 91.7153
lradius 21.6096
lwrist -23.8285
lhand -24.1115 -22.1018
lfingers 7.12502
lthumb 2.36965 7.8648
rfemur -26.7493 7.10721 9.31634
rtibia 21.4124
rfoot -10.5752 -6.39906
rtoes -27.907
lfemur -12.8208 -12.2837 -16.0019
ltibia 28.2521
lfoot -20.3799 15.906
ltoes -72.8656
524
root 7.43382 17.3498 37.459 13.2183 -7.16572 6.62133
lowerback -1.49221 -1.58053 -4.65794
upperback 4.19477 -2.08097 3.39418
thorax 5.51053 -1.32113 6.04515
lowerneck 5.99274 2.10815 -4.88273
upperneck 16.9022 1.8341 6.44894
head 3.94733 0.863212 2.83071
rclavicle -3.97569e-015 -3.18055e-014
rhumerus -38.7825 -20.5368 -72.1951
rradius 31.8598
rwrist 7.58854
rhand -12.9082 -37.6802
rfingers 7.12502
rthumb 13.1817 -67.2435
lclavicle -3.97569e-015 -3.18055e-014
lhumerus -26.2937 -2.24413 91.0236
lradius 21.1449
lwrist -24.1309
lhand -23.9481 -21.6953
lfingers 7.12502
lthumb 2.52746 8.26946
rfemur -26.2894 7.08974 9.53807
rtibia 21.05
rfoot -10.7461 -6.21146
rtoes -27.6827
lfemur -13.1151 -12.179 -15.7001
ltibia 27.7141
lfoot -20.4241 15.8513
ltoes -72.5961
525
root 7.38722 17.3595 37.541 13.1698 -7.24418 6.64276
lowerback -1.41064 -1.45103 -4.53701
upperback 4.24574 -1.91216 3.32517
thorax 5.48488 -1.23048 5.91549
lowerneck 5.95948 2.07408 -5.04289
upperneck 16.885 1.76774 6.62536
head 3.94616 0.830146 2.91175
rclavicle 5.56597e-015 2.54444e-014
rhumerus -37.9537 -20.1111 -72.7718
rradius 31.8669
rwrist 7.74913
rhand -12.9719 -37.8833
rfingers 7.12502
rthumb 13.1203 -67.4506
lclavicle 5.56597e-015 2.54444e-014
lhumerus -26.4669 -1.31888 90.2879
lradius 20.6616
lwrist -24.5783
lhand -23.7242 -21.4691
lfingers 7.12502
lthumb 2.74376 8.49302
rfemur -25.7602 7.01866 9.77197
rtibia 20.7793
rfoot -10.9163 -6.08837
rtoes -27.6022
lfemur -13.3442 -12.0218 -15.4177
ltibia 27.1261
lfoot -20.4889 15.7134
ltoes -72.1201
526
root 7.34536 17.3693 37.6176 13.1862 -7.1375 6.58112
lowerback -1.36493 -1.31811 -4.22644
upperback 4.27411 -1.74601 3.27904
thorax 5.45049 -1.13259 5.7006
lowerneck 5.67992 2.00674 -6.32937
upperneck 17.0522 1.49747 7.96232
head 4.02067 0.685859 3.54809
rclavicle -1.98785e-014 -1.59028e-015
rhumerus -37.2272 -19.8937 -73.1863
rradius 31.8349
rwrist 7.88785
rhand -12.8544 -37.9957
rfingers 7.12502
rthumb 13.2335 -67.5556
lclavicle -1.98785e-014 -1.59028e-015
lhumerus -26.5421 -0.614862 89.6284
lradius 20.0944
lwrist -25.088
lhand -23.7643 -21.4611
lfingers 7.12502
lthumb 2.70495 8.50153
rfemur -25.2502 6.9858 10.0673
rtibia 20.4796
rfoot -10.9473 -6.21608
rtoes -27.5889
lfemur -13.7346 -11.9125 -15.0213
ltibia 26.5289
lfoot -20.1798 15.994
ltoes -72.6643
527
root 7.30399 17.3772 37.688 13.2799 -7.05608 6.65556
lowerback -1.40507 -1.17643 -4.11055
upperback 4.24429 -1.55693 3.22624
thorax 5.41006 -1.03005 5.59017
lowerneck 5.49792 1.92102 -7.87604
upperneck 17.1605 1.18276 9.44055
head 4.06526 0.510074 4.27655
rclavicle 5.56597e-015 3.18055e-014
rhumerus -36.6975 -19.7089 -73.4409
rradius 31.7841
rwrist 8.0349
rhand -13.6319 -37.7191
rfingers 7.12502
rthumb 12.484 -67.3262
lclavicle 5.56597e-015 3.18055e-014
lhumerus -26.6274 0.1339 89.0286
lradius 19.5097
lwrist -25.5644
lhand -24.0425 -21.4145
lfingers 7.12502
lthumb 2.43635 8.55134
rfemur -24.9677 6.99258 10.1622
rtibia 20.3477
rfoot -11.0034 -6.36147
rtoes -27.3446
lfemur -14.2604 -11.8077 -14.7702
ltibia 25.8698
lfoot -19.9036 15.8945
ltoes -71.9273
528
root 7.27101 17.388 37.7529 13.2309 -7.0585 6.95904
lowerback -1.25292 -1.07025 -4.28735
upperback 4.20573 -1.40655 3.11153
thorax 5.26447 -0.954755 5.58108
lowerneck 7.03798 2.05411 -4.71177
upperneck 15.9325 1.8583 5.7853
head 3.92523 0.827387 2.80869
rclavicle 2.14687e-014 -1.27222e-014
rhumerus -36.3099 -19.4683 -73.6703
rradius 31.7838
rwrist 8.10454
rhand -14.681 -37.3965
rfingers 7.12502
rthumb 11.4724 -67.0625
lclavicle 2.14687e-014 -1.27222e-014
lhumerus -26.7852 1.02327 88.3698
lradius 19.026
lwrist -26.0103
lhand -23.983 -21.3156
lfingers 7.12502
lthumb 2.49378 8.6496
rfemur -24.6756 6.91554 9.95924
rtibia 20.3268
rfoot -11.1969 -6.31632
rtoes -26.905
lfemur -14.6534 -11.8379 -14.8842
ltibia 25.0954
lfoot -19.1367 16.1895
ltoes -72.4469
